<svg width="796" height="375" viewBox="0 0 796 375" fill="none" xmlns="http://www.w3.org/2000/svg">
<path fill-rule="evenodd" clip-rule="evenodd" d="M-134 0H318.517C390.853 0 454.892 30.8021 494.145 78.1059C488.937 78.7564 484.301 80.9477 480.239 84.68C475.319 89.16 472.859 94.58 472.859 100.94C472.859 106.5 474.659 111.06 478.259 114.62C481.899 118.14 486.779 119.9 492.899 119.9C499.579 119.9 505.379 117.66 510.299 113.18C511.994 111.635 513.399 109.981 514.515 108.216C515.9 110.785 517.219 113.385 518.471 116.016L516.428 117.8L516.188 119H519.856C529.464 140.219 534.74 163.325 534.74 187.5C534.74 291.053 437.934 375 318.517 375H-134V0ZM560.347 119H543.368L538.688 99.92L538.868 99.08L539.708 98.78C542.228 97.9 544.248 96.5 545.768 94.58C547.288 92.66 548.048 90.28 548.048 87.44C548.048 85.2 547.448 83.4 546.248 82.04C545.088 80.68 543.408 80 541.208 80H540.308L534.428 113.66L537.728 117.8L537.488 119H519.856C519.404 118.001 518.942 117.007 518.471 116.016L521.168 113.66L526.328 84.14L523.088 80L523.268 78.8H548.348C552.468 78.8 555.788 79.62 558.308 81.26C560.828 82.9 562.088 85.18 562.088 88.1C562.088 91.74 560.488 94.64 557.288 96.8C554.088 98.92 549.848 99.98 544.568 99.98H542.828C545.268 100.14 547.408 100.6 549.248 101.36C552.368 102.64 554.568 104.82 555.848 107.9L558.308 113.72L561.134 117.345L565.567 113.66L587.287 78.8H590.467L603.907 113.72L606.187 117.8L605.947 119H585.247L585.487 117.8L588.607 113.66L586.027 106.82H571.267L567.007 113.66L570.787 117.8L570.547 119H561.248H560.347ZM503.875 90.9024C507.756 96.4904 511.31 102.268 514.515 108.216C516.664 104.818 517.739 101.013 517.739 96.8C517.739 91.24 515.899 86.7 512.219 83.18C508.579 79.66 503.679 77.9 497.519 77.9C496.369 77.9 495.244 77.9686 494.145 78.1059C494.641 78.7038 495.133 79.3042 495.621 79.9073C492.203 81.9264 489.596 88.0373 487.799 98.24C487.039 102.52 486.659 106.12 486.659 109.04C486.659 115.44 488.539 118.64 492.299 118.64C497.059 118.64 500.559 112.28 502.799 99.56C503.376 96.1531 503.735 93.2673 503.875 90.9024ZM503.875 90.9024C501.268 87.1497 498.515 83.4827 495.621 79.9073C496.464 79.4091 497.357 79.16 498.299 79.16C501.979 79.16 503.859 82.24 503.939 88.4C503.95 89.1567 503.929 89.9909 503.875 90.9024ZM256.516 78.5H255.496L246.616 79.28C243.776 78.36 241.116 77.9 238.636 77.9C235.836 77.9 233.016 78.48 230.176 79.64C227.336 80.76 224.736 82.34 222.376 84.38C220.056 86.38 218.156 88.92 216.676 92C215.236 95.04 214.516 98.3 214.516 101.78C214.516 107.38 216.276 111.8 219.796 115.04C223.356 118.28 227.956 119.9 233.596 119.9C237.676 119.9 241.356 118.72 244.636 116.36C247.956 114 250.616 110.26 252.616 105.14L251.956 104.78C250.236 107.34 248.276 109.26 246.076 110.54C243.916 111.82 241.696 112.46 239.416 112.46C236.336 112.46 233.896 111.3 232.096 108.98C230.296 106.66 229.396 103.38 229.396 99.14C229.396 93.78 230.736 89.22 233.416 85.46C236.096 81.7 239.116 79.82 242.476 79.82H242.716L252.436 96.44H253.456L255.676 83.6L256.516 78.5ZM295.832 83.18C292.192 79.66 287.292 77.9 281.132 77.9C274.532 77.9 268.772 80.16 263.852 84.68C258.932 89.16 256.472 94.58 256.472 100.94C256.472 106.5 258.272 111.06 261.872 114.62C265.512 118.14 270.392 119.9 276.512 119.9C283.192 119.9 288.992 117.66 293.912 113.18C298.872 108.66 301.352 103.2 301.352 96.8C301.352 91.24 299.512 86.7 295.832 83.18ZM271.412 98.24C273.652 85.52 277.152 79.16 281.912 79.16C285.592 79.16 287.472 82.24 287.552 88.4C287.592 91.12 287.212 94.84 286.412 99.56C284.172 112.28 280.672 118.64 275.912 118.64C272.152 118.64 270.272 115.44 270.272 109.04C270.272 106.12 270.652 102.52 271.412 98.24ZM340.301 102.92H339.101L323.321 117.8H317.321L323.201 84.14L328.001 80L328.181 78.8H306.881L306.701 80L309.941 84.14L304.781 113.66L300.041 117.8L299.801 119H337.481L340.301 102.92ZM379.794 102.92H378.594L362.814 117.8H356.814L362.694 84.14L367.494 80L367.674 78.8H346.374L346.194 80L349.434 84.14L344.274 113.66L339.534 117.8L339.294 119H376.974L379.794 102.92ZM424.898 117.8L422.618 113.72L409.178 78.8H405.998L384.278 113.66L379.298 117.8L379.058 119H389.258L389.498 117.8L385.718 113.66L389.978 106.82H404.738L407.318 113.66L404.198 117.8L403.958 119H424.658L424.898 117.8ZM404.318 105.62H390.698L398.858 92.54H399.398L404.318 105.62ZM465.504 101.24C463.224 99.68 460.004 98.82 455.844 98.66L455.904 98.42C459.904 98.18 463.264 97.14 465.984 95.3C468.704 93.46 470.064 90.82 470.064 87.38C470.064 84.66 468.844 82.56 466.404 81.08C464.004 79.56 460.704 78.8 456.504 78.8H432.624L432.444 80L435.684 84.14L430.524 113.66L425.784 117.8L425.544 119H451.224C456.704 119 461.024 117.92 464.184 115.76C467.344 113.6 468.924 110.8 468.924 107.36C468.924 104.8 467.784 102.76 465.504 101.24ZM449.664 80H451.704C453.264 80 454.564 80.62 455.604 81.86C456.644 83.1 457.164 84.78 457.164 86.9C457.164 89.9 456.244 92.52 454.404 94.76C452.564 97 450.384 98.12 447.864 98.12H446.484L449.664 80ZM452.064 114.5C450.184 116.7 448.044 117.8 445.644 117.8H443.064L446.304 99.32H448.284C450.444 99.32 452.084 99.94 453.204 101.18C454.364 102.38 454.944 104.06 454.944 106.22C454.944 109.5 453.984 112.26 452.064 114.5ZM585.607 105.62H571.987L580.147 92.54H580.687L585.607 105.62ZM646.728 94.88L649.548 78.8H609.408L606.588 94.88H607.788L620.808 80H622.608L616.728 113.66L611.388 117.8L611.148 119H633.648L633.888 117.8L629.988 113.66L635.868 80H637.728L645.528 94.88H646.728ZM667.967 84.2L672.767 80L672.947 78.8H651.647L651.467 80L654.707 84.14L649.547 113.6L644.807 117.8L644.567 119H665.867L666.107 117.8L662.807 113.66L667.967 84.2ZM710.793 83.18C707.153 79.66 702.253 77.9 696.093 77.9C689.493 77.9 683.733 80.16 678.813 84.68C673.893 89.16 671.433 94.58 671.433 100.94C671.433 106.5 673.233 111.06 676.833 114.62C680.473 118.14 685.353 119.9 691.473 119.9C698.153 119.9 703.953 117.66 708.873 113.18C713.833 108.66 716.313 103.2 716.313 96.8C716.313 91.24 714.473 86.7 710.793 83.18ZM686.373 98.24C688.613 85.52 692.113 79.16 696.873 79.16C700.553 79.16 702.433 82.24 702.513 88.4C702.553 91.12 702.173 94.84 701.373 99.56C699.133 112.28 695.633 118.64 690.873 118.64C687.113 118.64 685.233 115.44 685.233 109.04C685.233 106.12 685.613 102.52 686.373 98.24ZM762.162 80L762.342 78.8H752.982L752.802 80L756.042 84.14L753.282 99.86L739.662 78.8H721.842L721.662 80L724.782 84.86L719.742 113.66L715.002 117.8L714.762 119H724.122L724.362 117.8L721.062 113.66L725.802 86.48L746.742 119H751.242L757.362 84.14L762.162 80ZM777.287 80.36C778.207 79.4 779.307 78.92 780.587 78.92H780.767L791.687 93.44H792.827L794.987 81.56L795.587 78.5H794.327L788.747 79.1C785.867 78.3 783.047 77.9 780.287 77.9C777.087 77.9 774.147 78.44 771.467 79.52C768.827 80.56 766.627 82.24 764.867 84.56C763.107 86.88 762.227 89.64 762.227 92.84C762.227 98.36 764.967 102.24 770.447 104.48L775.667 106.64C777.307 107.32 778.467 108.12 779.147 109.04C779.867 109.92 780.227 111.02 780.227 112.34C780.227 114.18 779.647 115.74 778.487 117.02C777.327 118.26 775.767 118.88 773.807 118.88H773.147L762.287 103.76H761.087L759.107 115.04L758.327 119.3H759.467L765.467 118.64C768.027 119.48 770.867 119.9 773.987 119.9C777.347 119.9 780.447 119.38 783.287 118.34C786.127 117.3 788.487 115.62 790.367 113.3C792.287 110.98 793.247 108.22 793.247 105.02C793.247 102.5 792.607 100.4 791.327 98.72C790.087 97.04 788.047 95.58 785.207 94.34L780.407 92.24C778.447 91.4 777.047 90.58 776.207 89.78C775.407 88.94 775.007 87.88 775.007 86.6C775.007 85.6 775.167 84.56 775.487 83.48C775.807 82.36 776.407 81.32 777.287 80.36Z" fill="#B90124"/>
</svg>
